<svg width="38" height="38" viewBox="0 0 38 38" fill="none" xmlns="http://www.w3.org/2000/svg">
<circle cx="19" cy="19" r="19" fill="#D9D9D9" fill-opacity="0.6"/>
<path d="M25.7686 25.753C25.604 25.9177 25.3982 25.9794 25.1925 25.9794C24.9868 25.9794 24.781 25.8971 24.6165 25.753L19 20.1345L13.3835 25.753C13.219 25.9177 13.0132 26 12.8075 26C12.6018 26 12.396 25.9177 12.2314 25.7736C11.9229 25.4649 11.9229 24.9504 12.2314 24.6417L17.8685 19.0026L12.2314 13.3841C11.9229 13.0753 11.9229 12.5608 12.2314 12.2521C12.54 11.9434 13.0544 11.9434 13.363 12.2521L19 17.8706L24.6165 12.2315C24.9251 11.9228 25.4394 11.9228 25.748 12.2315C26.0566 12.5402 26.0566 13.0548 25.748 13.3635L20.1315 19.0026L25.7686 24.6211C26.0771 24.9298 26.0771 25.4443 25.7686 25.753Z" fill="black"/>
</svg>
