<svg width="21" height="26" viewBox="0 0 21 26" fill="none" xmlns="http://www.w3.org/2000/svg">
<path d="M2.61709 6.02466C2.61709 5.85027 2.75981 5.70768 2.93195 5.70768H12.8299C13.0031 5.70768 13.1447 5.85136 13.1447 6.02466C13.1447 6.19905 13.002 6.34164 12.8299 6.34164H2.93307C2.75984 6.33944 2.61709 6.19905 2.61709 6.02466ZM8.24659 3.95825H12.8321C13.0054 3.95825 13.147 3.81457 13.147 3.64127C13.147 3.46688 13.0043 3.3243 12.8321 3.3243L8.24659 3.3232C8.07337 3.3232 7.93173 3.46688 7.93173 3.64018C7.93064 3.81457 8.0701 3.95825 8.24659 3.95825ZM2.93309 8.72289H12.831C13.0043 8.72289 13.1459 8.5792 13.1459 8.40591C13.1459 8.23152 13.0032 8.08893 12.831 8.08893H2.93309C2.75987 8.08893 2.61823 8.23261 2.61823 8.40591C2.61714 8.5803 2.75987 8.72289 2.93309 8.72289ZM2.93309 11.1041H12.831C13.0043 11.1041 13.1459 10.9604 13.1459 10.7871C13.1459 10.6127 13.0064 10.4723 12.831 10.4723H2.93309C2.75987 10.4723 2.61823 10.616 2.61823 10.7893C2.61714 10.9637 2.75987 11.1041 2.93309 11.1041ZM2.93309 13.4875H12.831C13.0043 13.4875 13.1459 13.3438 13.1459 13.1705C13.1459 12.9961 13.0032 12.8535 12.831 12.8535H2.93309C2.75987 12.8535 2.61823 12.9972 2.61823 13.1705C2.61714 13.3449 2.75987 13.4875 2.93309 13.4875ZM2.93309 15.8687H12.831C13.0043 15.8687 13.1459 15.725 13.1459 15.5517C13.1459 15.3773 13.0032 15.2347 12.831 15.2347H2.93309C2.75987 15.2347 2.61823 15.3784 2.61823 15.5517C2.61714 15.7283 2.75987 15.8687 2.93309 15.8687ZM9.68242 17.6181H2.93309C2.75987 17.6181 2.61823 17.7618 2.61823 17.9351C2.61823 18.1095 2.76096 18.252 2.93309 18.252H9.68242C9.85565 18.252 9.99728 18.1084 9.99728 17.9351C9.99728 17.7618 9.85565 17.6181 9.68242 17.6181ZM21 18.4583V20.7693C21 22.0438 20.6121 23.1504 19.8506 24.0575C19.1675 24.8692 18.2022 25.5031 16.9775 25.9441C16.8719 25.9803 16.7651 26 16.6594 26C16.5537 26 16.447 25.9803 16.3413 25.9441C15.1167 25.5031 14.1492 24.8692 13.4682 24.0575C13.3397 23.9029 13.2253 23.7427 13.1163 23.5771H3.48199C2.70955 23.5771 2.08418 22.9454 2.08418 22.1699V21.5776H1.39781C0.627546 21.5776 0 20.9459 0 20.1704L0.00108949 3.73694C0.00108949 3.65248 0.0348624 3.57132 0.092605 3.51209L3.48749 0.0921311C3.54632 0.0329024 3.62694 0 3.71083 0H14.3705C15.1429 0 15.7683 0.631766 15.7683 1.40721V1.99731H16.4546C17.2249 1.99731 17.8525 2.62907 17.8525 3.40452V16.4776L20.8421 18.182C20.939 18.2391 21 18.3431 21 18.4583ZM15.7649 2.63239V16.3097L16.5035 15.8885C16.5983 15.8326 16.7182 15.8326 16.813 15.8885L17.2204 16.121L17.2215 3.40795C17.2215 2.9813 16.8761 2.63251 16.4512 2.63251L15.7649 2.63239ZM1.07193 3.41881H2.62228C3.04608 3.41881 3.39254 3.07111 3.39254 2.64336V1.08259L1.07193 3.41881ZM1.39552 20.9426H12.3263C12.323 20.8834 12.3208 20.8274 12.3208 20.7682V18.4572C12.3208 18.342 12.3818 18.2378 12.4799 18.1819L15.1349 16.6683V1.4082C15.1349 0.981551 14.7896 0.63276 14.3647 0.63276L4.02329 0.633857V2.64433C4.02329 3.41978 3.39574 4.05154 2.62548 4.05154H0.628432V20.168C0.628432 20.5947 0.97172 20.9426 1.39552 20.9426ZM12.7667 22.9421C12.5738 22.5176 12.4464 22.0602 12.3788 21.5776H2.71515V22.1699C2.71515 22.5966 3.06053 22.9454 3.48542 22.9454H12.7667L12.7667 22.9421ZM20.3703 18.6435L16.6605 16.5289L12.9507 18.6435V20.7692C12.9507 23.4849 14.9118 24.756 16.5548 25.3462C16.63 25.3748 16.6943 25.3748 16.7694 25.3462C18.4124 24.7561 20.3735 23.4817 20.3735 20.7692L20.3724 18.6435H20.3703ZM14.6864 20.7067C14.5687 20.5772 14.3715 20.5663 14.243 20.6847C14.1144 20.8032 14.1035 21.0017 14.2212 21.1311L15.4795 22.535C15.5406 22.6052 15.6277 22.6392 15.7138 22.6392C15.789 22.6392 15.862 22.614 15.923 22.5603L19.0802 19.7612C19.211 19.646 19.2229 19.4442 19.1085 19.3148C18.9941 19.1832 18.7937 19.1711 18.6651 19.2863L15.7422 21.8803L14.6864 20.7067Z" fill="black" fill-opacity="0.6"/>
</svg>
