<svg width="21" height="22" viewBox="0 0 21 22" fill="none" xmlns="http://www.w3.org/2000/svg">
<path d="M16 11.3514C16 9.83159 15.3323 8.37832 14.1683 7.36381C13.005 6.34968 11.4392 5.86395 9.87535 6.03302C7.34577 6.30466 5.30929 8.28868 5.0334 10.751C4.85038 12.3851 5.42556 13.9836 6.61211 15.1367C7.18272 15.6916 7.53284 16.3898 7.62641 17.1344H7.33008C7.10242 17.1344 6.91821 17.3137 6.91821 17.5352V18.9752C6.91821 19.7974 7.57591 20.4659 8.40521 20.5264V20.605C8.40521 21.3741 9.04836 22 9.83874 22H11.1608C11.9512 22 12.5944 21.3741 12.5944 20.605V20.5264C13.4237 20.4659 14.0814 19.7974 14.0814 18.9752V17.5352C14.0814 17.3137 13.8972 17.1344 13.6695 17.1344H13.3716C13.4605 16.3855 13.7939 15.6958 14.3207 15.2001C15.4035 14.1825 16 12.8157 16 11.3514ZM11.7706 20.605C11.7706 20.9322 11.4971 21.1984 11.1608 21.1984H9.83874C9.50247 21.1984 9.22898 20.9322 9.22898 20.605V20.5381H11.7706V20.605ZM13.2576 18.9752C13.2576 19.3948 12.9065 19.7365 12.4753 19.7365H12.1825H8.81711H8.52427C8.09309 19.7365 7.74195 19.3948 7.74195 18.9752V17.9361H8.06614H12.9334H13.2576V18.9752ZM12.5409 17.1344L10.9115 17.1341V13.2717L12.5035 11.7225C12.6643 11.5659 12.6643 11.3123 12.5035 11.1557C12.3426 10.9992 12.0819 10.9992 11.921 11.1557L10.4996 12.5389L9.07853 11.1557C8.91765 10.9992 8.65702 10.9992 8.49611 11.1557C8.33523 11.3123 8.33523 11.5659 8.49611 11.7225L10.0877 13.2716V17.134L8.45791 17.1337C8.36178 16.1755 7.92175 15.2768 7.19454 14.57C6.18574 13.5891 5.69626 12.229 5.8523 10.8379C6.08681 8.74623 7.81676 7.06047 9.96543 6.82993C11.3169 6.68394 12.6149 7.08592 13.6184 7.96069C14.6083 8.82336 15.1762 10.0594 15.1762 11.3514C15.1762 12.5961 14.669 13.7582 13.7484 14.624C13.0626 15.2686 12.6342 16.1673 12.5409 17.1344Z" fill="black" fill-opacity="0.6"/>
<path d="M11 2.55258V0.447416C11 0.200102 10.7764 0 10.5 0C10.2236 0 10 0.200102 10 0.447416V2.55258C10 2.79986 10.2236 3 10.5 3C10.7764 3 11 2.79986 11 2.55258Z" fill="black" fill-opacity="0.6"/>
<path d="M4.62456 5C4.72062 5 4.81667 4.96335 4.88999 4.89003C5.03667 4.74336 5.03667 4.50578 4.88999 4.35914L3.64087 3.10998C3.49423 2.96334 3.25666 2.96334 3.10998 3.10998C2.96334 3.25666 2.96334 3.49423 3.10998 3.64088L4.35913 4.89003C4.43246 4.96335 4.52851 5 4.62456 5Z" fill="black" fill-opacity="0.6"/>
<path d="M0 10.5C0 10.7764 0.200107 11 0.447383 11H2.55265C2.79993 11 3 10.7764 3 10.5C3 10.2236 2.79993 10 2.55265 10H0.447383C0.200107 10 0 10.2236 0 10.5Z" fill="black" fill-opacity="0.6"/>
<path d="M3.10998 17.835C3.18331 17.945 3.27939 18 3.37544 18C3.4715 18 3.56755 17.945 3.64087 17.835L4.88999 15.9613C5.03667 15.7413 5.03667 15.385 4.88999 15.165C4.74335 14.945 4.50578 14.945 4.35913 15.165L3.10998 17.0387C2.96334 17.2586 2.96334 17.615 3.10998 17.835Z" fill="black" fill-opacity="0.6"/>
<path d="M17.89 3.10998C17.7434 2.96334 17.5058 2.96334 17.3591 3.10998L16.11 4.35914C15.9633 4.50578 15.9633 4.74336 16.11 4.89003C16.1833 4.96335 16.2794 5 16.3754 5C16.4715 5 16.5676 4.96335 16.6409 4.89003L17.89 3.64088C18.0367 3.49423 18.0367 3.25666 17.89 3.10998Z" fill="black" fill-opacity="0.6"/>
<path d="M21 10.5C21 10.2236 20.7999 10 20.5526 10H18.4474C18.2001 10 18 10.2236 18 10.5C18 10.7764 18.2001 11 18.4474 11H20.5526C20.7999 11 21 10.7764 21 10.5Z" fill="black" fill-opacity="0.6"/>
<path d="M17.3591 17.835C17.4324 17.945 17.5285 18 17.6246 18C17.7206 18 17.8167 17.945 17.89 17.835C18.0367 17.615 18.0367 17.2586 17.89 17.0387L16.6409 15.165C16.4942 14.945 16.2567 14.945 16.11 15.165C15.9633 15.385 15.9633 15.7413 16.11 15.9613L17.3591 17.835Z" fill="black" fill-opacity="0.6"/>
</svg>
