<svg width="27" height="15" viewBox="0 0 27 15" fill="none" xmlns="http://www.w3.org/2000/svg">
<path d="M21.6735 0.0428626L18.6654 2.11558L14.3499 0.946354C14.2861 0.925096 14.1904 0.925096 14.1479 0.935725L10.5977 1.53097C10.5233 1.55223 10.4595 1.59474 10.417 1.65852L8.02541 2.11558L5.14487 0.0641212C4.93228 -0.0315426 4.81536 0.0534919 4.7197 0.149156L0.0427973 7.00506C-0.0316079 7.13262 -0.0103493 7.32394 0.117203 7.40898L2.98712 9.65176C3.11467 9.74743 3.306 9.71554 3.40166 9.59862L4.45396 8.28058L5.61256 8.89708C5.34683 9.60925 5.44249 10.3639 5.9527 10.8316C6.37787 11.1824 6.93059 11.0229 7.39828 10.9698C7.31325 11.4162 7.3664 11.9477 7.74905 12.3516C8.37618 12.798 8.96079 12.6599 9.471 12.4685C9.36471 13 9.49226 13.5315 9.84303 13.861C10.3958 14.2224 11.1292 13.9992 11.5862 13.7228C11.5225 14.0629 11.5756 14.4562 11.937 14.7751C12.8936 15.4129 14.0416 14.5731 14.8388 13.7653C15.551 13.946 16.2631 13.9354 16.8477 13.5634C17.2304 13.1701 17.1666 12.7449 17.0497 12.3091C17.6131 12.5855 18.1977 12.6705 18.6335 12.3516C18.8992 12.0859 19.0799 11.6713 19.1012 11.2143C19.622 11.4162 20.2385 11.4906 20.7168 11.0974C21.0038 10.7997 21.0357 10.3639 20.9507 9.90687C21.3865 9.98127 21.9498 9.88561 22.2262 9.61987C22.3856 9.43918 22.4175 9.32225 22.4388 9.15219C22.6301 9.32225 22.832 9.48169 23.0234 9.64113C23.1297 9.72617 23.2891 9.72617 23.3954 9.65176L26.2866 7.46212C26.4035 7.37709 26.4354 7.18576 26.361 7.06884L22.1093 0.138526C21.9604 -0.0315426 21.8329 -0.0209133 21.6735 0.0428626ZM21.7479 0.723139L25.6913 7.15387L23.2785 8.97149L19.133 2.51949L21.7479 0.723139ZM5.0492 0.744397L7.58961 2.55138C6.08025 4.81543 4.78347 6.67556 3.1253 8.98212L0.701815 7.11136C2.1474 4.98549 3.60362 2.87026 5.0492 0.744397ZM14.2117 1.53097L18.5484 2.71082L21.9073 7.92981C20.6637 6.88814 19.3563 5.81458 18.0595 4.98549C17.1454 4.41151 16.2525 3.96508 15.3809 3.75249C14.5093 3.53991 13.6483 3.57179 12.9043 3.99697C12.8511 4.01823 12.8192 4.06074 12.7873 4.10326C12.3515 4.83668 12.022 5.22997 11.5862 5.41067C11.2036 5.58074 10.6296 5.59136 9.82177 5.50633C10.0981 4.39025 10.3958 3.11473 10.8741 2.10495L14.2117 1.53097ZM10.1088 2.32817C9.67296 3.44424 9.41785 4.70913 9.16275 5.69766C9.12023 5.86773 9.24778 6.04843 9.41785 6.06968C10.4808 6.21849 11.2036 6.23975 11.8201 5.97402C12.3941 5.72955 12.798 5.21934 13.2231 4.5178C13.8184 4.19893 14.4774 4.15641 15.2321 4.33711C16.008 4.52843 16.8584 4.94298 17.7406 5.50633C19.0799 6.34605 20.483 7.50464 21.8116 8.62072C21.9286 8.73764 21.9392 9.04589 21.8116 9.1947C21.514 9.42855 21.0995 9.41792 20.7274 9.1947C20.6318 9.09904 20.4617 9.08841 20.3448 9.16282C20.2385 9.24785 20.196 9.41792 20.2598 9.54547C20.5149 10.0769 20.4617 10.5021 20.2916 10.6722C19.994 10.8954 19.2819 10.7147 18.9311 10.3958C18.8354 10.3002 18.6654 10.2789 18.5591 10.3639C18.4421 10.4383 18.389 10.5978 18.4421 10.7253C18.6228 11.2355 18.4315 11.7032 18.2189 11.9264C17.9745 12.1071 17.1879 11.767 16.7733 11.565C16.5501 11.4375 16.2525 11.7351 16.3588 11.9583C16.5395 12.3729 16.667 12.8512 16.4226 13.1382C16.125 13.372 15.5829 13.2764 15.1683 13.2232C15.4447 12.5004 15.4553 11.9158 15.0514 11.3206C14.6156 10.8635 14.2648 10.9379 13.9247 10.9379C14.0522 10.3533 13.9885 9.69428 13.5527 9.1947C12.883 8.72701 12.2878 9.04589 11.8201 9.29037C11.9264 8.82268 11.8413 8.29121 11.4587 7.98296C10.7571 7.49401 9.93869 7.66408 9.42848 8.09988C9.46037 7.67471 9.37534 7.37709 9.06709 7.06884C8.66317 6.76059 7.9829 6.86688 7.51521 7.04758C6.88808 7.32394 6.29283 7.85541 5.89955 8.36561L4.80473 7.781L8.21674 2.70019C8.84387 2.57264 9.48163 2.45572 10.1088 2.32817ZM2.27495 6.37793C1.94544 6.37793 1.66908 6.6543 1.66908 6.98381C1.66908 7.32394 1.94544 7.58968 2.27495 7.58968C2.60446 7.58968 2.8702 7.32394 2.8702 6.98381C2.8702 6.6543 2.60446 6.37793 2.27495 6.37793ZM23.9481 6.37793C23.6186 6.37793 23.3529 6.6543 23.3529 6.98381C23.3529 7.32394 23.6186 7.58968 23.9481 7.58968C24.2776 7.58968 24.5434 7.32394 24.5434 6.98381C24.5434 6.6543 24.2776 6.37793 23.9481 6.37793ZM8.66317 7.54716C8.93953 7.79163 9.0352 8.22744 8.8545 8.5038L7.50458 10.332C7.2601 10.5127 6.72864 10.5446 6.37787 10.4064C6.12277 10.2576 6.00584 9.86435 6.04836 9.56673C6.18654 8.64198 6.88808 7.95107 7.72779 7.61094C8.07856 7.47275 8.45059 7.36646 8.66317 7.54716ZM11.0441 8.40813C11.3736 8.71638 11.4268 9.21596 11.2461 9.61987L9.59855 11.8414C9.1096 12.1815 8.54625 12.1603 8.17422 11.9264C7.8766 11.6076 7.8022 11.108 7.9829 10.7041L9.471 8.6845C9.85365 8.23806 10.5871 8.16366 11.0441 8.40813ZM13.1275 9.61987C13.4783 10.0238 13.4889 10.6297 13.3401 11.1186L11.6925 13.0531C11.3311 13.4145 10.6615 13.6484 10.2682 13.4252C9.88554 13.1594 9.85366 12.5642 10.045 12.2453L11.735 9.94938C12.0646 9.59862 12.8299 9.38603 13.1275 9.61987ZM13.7759 11.5438C13.9672 11.3737 14.3605 11.5119 14.5837 11.7245C14.9132 12.2028 14.8069 12.9575 14.3286 13.4358C13.7759 13.9247 12.9574 14.7538 12.3622 14.3499C12.0964 14.0629 12.0539 13.7228 12.1708 13.4464L13.7759 11.5438Z" fill="black" fill-opacity="0.6"/>
</svg>
