<svg width="21" height="23" viewBox="0 0 21 23" fill="none" xmlns="http://www.w3.org/2000/svg">
<path d="M12.8026 21.5745H0.468054C0.343918 21.5745 0.224867 21.5252 0.13709 21.4374C0.0493126 21.3496 0 21.2306 0 21.1065V4.09684C0 3.9727 0.0493126 3.85365 0.13709 3.76587C0.224867 3.6781 0.343918 3.62878 0.468054 3.62878H12.8026C12.9251 3.63165 13.0417 3.68214 13.1275 3.76953C13.2134 3.85692 13.2618 3.97433 13.2624 4.09684V21.1065C13.2618 21.229 13.2134 21.3464 13.1275 21.4338C13.0417 21.5212 12.9251 21.5717 12.8026 21.5745ZM0.936107 20.6384H12.3346V4.56489H0.936107V20.6384Z" fill="black" fill-opacity="0.6"/>
<path d="M8.90696 6.75895C8.90696 6.63033 8.86878 6.50459 8.79726 6.39768C8.72574 6.29077 8.6241 6.20749 8.50521 6.15839C8.38632 6.10929 8.25553 6.09658 8.12941 6.12188C8.00329 6.14718 7.88752 6.20933 7.79676 6.30048C7.706 6.39163 7.64433 6.50766 7.61957 6.63389C7.59481 6.76011 7.60807 6.89084 7.65768 7.00952C7.70728 7.1282 7.79099 7.22949 7.8982 7.30056C8.00542 7.37162 8.13132 7.40927 8.25994 7.40872C8.34514 7.40872 8.4295 7.3919 8.50818 7.35921C8.58686 7.32652 8.65831 7.27862 8.71843 7.21824C8.77855 7.15787 8.82615 7.08622 8.8585 7.0074C8.89085 6.92858 8.90732 6.84415 8.90696 6.75895Z" fill="black" fill-opacity="0.6"/>
<path d="M10.1429 8.64225C10.2714 8.64225 10.3971 8.60414 10.5039 8.53274C10.6108 8.46135 10.6941 8.35987 10.7432 8.24114C10.7924 8.12241 10.8053 7.99176 10.7802 7.86572C10.7551 7.73968 10.6933 7.6239 10.6024 7.53303C10.5115 7.44215 10.3957 7.38027 10.2697 7.3552C10.1437 7.33013 10.013 7.34299 9.89428 7.39217C9.77555 7.44135 9.67407 7.52464 9.60267 7.63149C9.53127 7.73834 9.49316 7.86397 9.49316 7.99248C9.49316 8.16481 9.56162 8.33008 9.68348 8.45194C9.80533 8.57379 9.9706 8.64225 10.1429 8.64225Z" fill="black" fill-opacity="0.6"/>
<path d="M8.51891 10.0714C8.87777 10.0714 9.16868 9.78048 9.16868 9.42162C9.16868 9.06276 8.87777 8.77185 8.51891 8.77185C8.16005 8.77185 7.86914 9.06276 7.86914 9.42162C7.86914 9.78048 8.16005 10.0714 8.51891 10.0714Z" fill="black" fill-opacity="0.6"/>
<path d="M10.1429 11.6295C10.5018 11.6295 10.7927 11.3386 10.7927 10.9797C10.7927 10.6209 10.5018 10.33 10.1429 10.33C9.78407 10.33 9.49316 10.6209 9.49316 10.9797C9.49316 11.3386 9.78407 11.6295 10.1429 11.6295Z" fill="black" fill-opacity="0.6"/>
<path d="M17.957 14.0966C19.4873 12.9073 20.5254 11.1955 20.8727 9.28878C21.22 7.38204 20.8522 5.41418 19.8397 3.76162C18.8271 2.10906 17.2408 0.887812 15.3842 0.33149C13.5277 -0.224832 11.5312 -0.0771749 9.77666 0.746215C8.02215 1.56961 6.63278 3.01093 5.87432 4.79447C5.11586 6.57801 5.04156 8.57857 5.66562 10.4135C6.28969 12.2484 7.56832 13.7888 9.25692 14.74C10.9455 15.6913 12.9256 15.9867 14.8183 15.5696L17.5715 21.423C17.713 21.7202 17.9357 21.9713 18.2139 22.1472C18.4921 22.3231 18.8145 22.4166 19.1436 22.4169C19.4362 22.4171 19.7241 22.3431 19.9804 22.2019C20.2367 22.0607 20.453 21.8569 20.6092 21.6094C20.7653 21.362 20.8563 21.079 20.8735 20.7869C20.8907 20.4948 20.8335 20.2031 20.7075 19.939L17.957 14.0966ZM6.17303 7.86323C6.17249 6.4876 6.57991 5.1427 7.34377 3.99864C8.10764 2.85458 9.19363 1.96274 10.4644 1.43593C11.7352 0.909126 13.1336 0.771006 14.4829 1.03904C15.8321 1.30708 17.0716 1.96924 18.0445 2.94177C19.0174 3.91429 19.6801 5.1535 19.9487 6.50266C20.2172 7.85182 20.0797 9.25033 19.5534 10.5213C19.027 11.7923 18.1356 12.8786 16.9919 13.6429C15.8481 14.4072 14.5034 14.8152 13.1278 14.8152C11.2844 14.813 9.51712 14.08 8.21341 12.7768C6.9097 11.4736 6.17594 9.70659 6.17303 7.86323ZM19.9008 20.9522C19.8286 21.1511 19.6807 21.3134 19.4894 21.4037C19.298 21.494 19.0787 21.5049 18.8793 21.434C18.7805 21.3991 18.6897 21.3449 18.6122 21.2744C18.5347 21.204 18.472 21.1188 18.4278 21.0238L15.7406 15.3108C16.2432 15.1346 16.7266 14.9076 17.1833 14.6335L19.8705 20.341C19.9155 20.4359 19.9413 20.5387 19.9465 20.6436C19.9517 20.7485 19.9362 20.8533 19.9008 20.9522Z" fill="black" fill-opacity="0.6"/>
</svg>
